HIERARCHY
ROOT hip
{
  OFFSET 0 0 0
  CHANNELS 6 Xposition Yposition Zposition Zrotation Yrotation Xrotation
  JOINT abdomen
  {
    OFFSET 0 20.6881 -0.73152
    CHANNELS 3 Zrotation Xrotation Yrotation
    JOINT chest
    {
      OFFSET 0 11.7043 -0.48768
      CHANNELS 3 Zrotation Xrotation Yrotation
      JOINT neck
      {
        OFFSET 0 22.1894 -2.19456
        CHANNELS 3 Zrotation Xrotation Yrotation
        JOINT head
        {
          OFFSET -0.24384 7.07133 1.2192
          CHANNELS 3 Zrotation Xrotation Yrotation
          JOINT leftEye
          {
            OFFSET 4.14528 8.04674 8.04672
            CHANNELS 3 Zrotation Xrotation Yrotation
            End Site
            {
              OFFSET 1 0 0
            }
          }
          JOINT rightEye
          {
            OFFSET -3.6576 8.04674 8.04672
            CHANNELS 3 Zrotation Xrotation Yrotation
            End Site
            {
              OFFSET 1 0 0
            }
          }
        }
      }
      JOINT rCollar
      {
        OFFSET -2.68224 19.2634 -4.8768
        CHANNELS 3 Zrotation Xrotation Yrotation
        JOINT rShldr
        {
          OFFSET -8.77824 -1.95073 1.46304
          CHANNELS 3 Zrotation Xrotation Yrotation
          JOINT rForeArm
          {
            OFFSET -28.1742 -1.7115 0.48768
            CHANNELS 3 Zrotation Xrotation Yrotation
            JOINT rHand
            {
              OFFSET -22.5879 0.773209 7.07136
              CHANNELS 3 Zrotation Xrotation Yrotation
              JOINT rThumb1
              {
                OFFSET -1.2192 -0.487915 3.41376
                CHANNELS 3 Zrotation Xrotation Yrotation
                JOINT rThumb2
                {
                  OFFSET -3.37035 -0.52449 3.41376
                  CHANNELS 3 Zrotation Xrotation Yrotation
                  End Site
                  {
                    OFFSET -1.78271 -1.18214 1.43049
                  }
                }
              }
              JOINT rIndex1
              {
                OFFSET -7.75947 0.938293 5.60832
                CHANNELS 3 Zrotation Xrotation Yrotation
                JOINT rIndex2
                {
                  OFFSET -2.54057 -0.884171 1.56538
                  CHANNELS 3 Zrotation Xrotation Yrotation
                  End Site
                  {
                    OFFSET -1.62519 -0.234802 1.16502
                  }
                }
              }
              JOINT rMid1
              {
                OFFSET -8.24714 1.18213 3.41376
                CHANNELS 3 Zrotation Xrotation Yrotation
                JOINT rMid2
                {
                  OFFSET -3.10165 -0.590103 1.0647
                  CHANNELS 3 Zrotation Xrotation Yrotation
                  End Site
                  {
                    OFFSET -2.48547 -0.328903 0.83742
                  }
                }
              }
              JOINT rRing1
              {
                OFFSET -8.82822 0.546677 1.51678
                CHANNELS 3 Zrotation Xrotation Yrotation
                JOINT rRing2
                {
                  OFFSET -2.60934 -0.819778 -0.0198488
                  CHANNELS 3 Zrotation Xrotation Yrotation
                  End Site
                  {
                    OFFSET -2.33842 -0.294052 0.168128
                  }
                }
              }
              JOINT rPinky1
              {
                OFFSET -8.27202 -0.0477905 -0.4584
                CHANNELS 3 Zrotation Xrotation Yrotation
                JOINT rPinky2
                {
                  OFFSET -1.82734 -0.647385 -0.700984
                  CHANNELS 3 Zrotation Xrotation Yrotation
                  End Site
                  {
                    OFFSET -1.69225 -0.51767 -0.607171
                  }
                }
              }
            }
          }
        }
      }
      JOINT lCollar
      {
        OFFSET 2.68224 19.2634 -4.8768
        CHANNELS 3 Zrotation Xrotation Yrotation
        JOINT lShldr
        {
          OFFSET 8.77824 -1.95073 1.46304
          CHANNELS 3 Zrotation Xrotation Yrotation
          JOINT lForeArm
          {
            OFFSET 28.1742 -1.7115 0.48768
            CHANNELS 3 Zrotation Xrotation Yrotation
            JOINT lHand
            {
              OFFSET 22.5879 0.773209 7.07136
              CHANNELS 3 Zrotation Xrotation Yrotation
              JOINT lThumb1
              {
                OFFSET 1.2192 -0.487915 3.41376
                CHANNELS 3 Zrotation Xrotation Yrotation
                JOINT lThumb2
                {
                  OFFSET 3.37035 -0.52449 3.41376
                  CHANNELS 3 Zrotation Xrotation Yrotation
                  End Site
                  {
                    OFFSET 1.78271 -1.18214 1.43049
                  }
                }
              }
              JOINT lIndex1
              {
                OFFSET 7.75947 0.938293 5.60832
                CHANNELS 3 Zrotation Xrotation Yrotation
                JOINT lIndex2
                {
                  OFFSET 2.54057 -0.884171 1.56538
                  CHANNELS 3 Zrotation Xrotation Yrotation
                  End Site
                  {
                    OFFSET 1.62519 -0.234802 1.16502
                  }
                }
              }
              JOINT lMid1
              {
                OFFSET 8.24714 1.18213 3.41376
                CHANNELS 3 Zrotation Xrotation Yrotation
                JOINT lMid2
                {
                  OFFSET 3.10165 -0.590103 1.0647
                  CHANNELS 3 Zrotation Xrotation Yrotation
                  End Site
                  {
                    OFFSET 2.48547 -0.328903 0.83742
                  }
                }
              }
              JOINT lRing1
              {
                OFFSET 8.82822 0.546677 1.51678
                CHANNELS 3 Zrotation Xrotation Yrotation
                JOINT lRing2
                {
                  OFFSET 2.60934 -0.819778 -0.0198488
                  CHANNELS 3 Zrotation Xrotation Yrotation
                  End Site
                  {
                    OFFSET 2.33842 -0.294052 0.168128
                  }
                }
              }
              JOINT lPinky1
              {
                OFFSET 8.27202 -0.0477905 -0.4584
                CHANNELS 3 Zrotation Xrotation Yrotation
                JOINT lPinky2
                {
                  OFFSET 1.82734 -0.647385 -0.700984
                  CHANNELS 3 Zrotation Xrotation Yrotation
                  End Site
                  {
                    OFFSET 1.69225 -0.51767 -0.607171
                  }
                }
              }
            }
          }
        }
      }
    }
  }
  JOINT rButtock
  {
    OFFSET -8.77824 4.35084 1.2192
    CHANNELS 3 Zrotation Xrotation Yrotation
    JOINT rThigh
    {
      OFFSET 0 -1.70687 -2.19456
      CHANNELS 3 Zrotation Xrotation Yrotation
      JOINT rShin
      {
        OFFSET 0 -36.8199 0.73152
        CHANNELS 3 Zrotation Xrotation Yrotation
        JOINT rFoot
        {
          OFFSET 0.73152 -45.1104 -5.12064
          CHANNELS 3 Zrotation Xrotation Yrotation
          End Site
          {
            OFFSET -1.1221 -3.69964 12.103
          }
        }
      }
    }
  }
  JOINT lButtock
  {
    OFFSET 8.77824 4.35084 1.2192
    CHANNELS 3 Zrotation Xrotation Yrotation
    JOINT lThigh
    {
      OFFSET 0 -1.70687 -2.19456
      CHANNELS 3 Zrotation Xrotation Yrotation
      JOINT lShin
      {
        OFFSET 0 -36.8199 0.73152
        CHANNELS 3 Zrotation Xrotation Yrotation
        JOINT lFoot
        {
          OFFSET -0.73152 -45.1104 -5.12064
          CHANNELS 3 Zrotation Xrotation Yrotation
          End Site
          {
            OFFSET 1.1221 -3.69964 12.103
          }
        }
      }
    }
  }
}
MOTION
Frames:	6
Frame Time:	0.00833333
34.623 85.1388 198.339 0.0 0.0 0.0 0.410589 -0.00336423 0.0117806 0.113459 -0.00539518 0.0196593 -1.78698e-15 7.95139e-16 1.11816e-16 -5.37029e-15 9.54166e-15 3.24578e-16 -0.0 0.0 0.0 -0.0 0.0 0.0 -8.46278e-16 -1.55301e-17 1.49089e-16 -1.67282e-14 -1.92573e-16 1.98785e-15 -3.23472e-13 8.42847e-14 3.49861e-14 -3.66028e-12 -1.53362e-13 2.16278e-13 -8.64385e-12 -1.54636e-13 5.40694e-13 -1.49434e-11 -2.67167e-13 9.35083e-13 -8.63839e-12 -1.53859e-13 5.37514e-13 7.73091 5.47488 0.417314 -8.64281e-12 -1.54257e-13 5.43875e-13 2.90554 0.965183 0.102902 -8.63247e-12 -1.54158e-13 5.36719e-13 10.2786 0.731801 0.0259123 -8.64475e-12 -1.54257e-13 5.37514e-13 2.22167 -0.733487 -0.20892 -9.42842e-16 -1.55301e-17 -4.96962e-17 -2.06577e-14 -3.91357e-16 0.0 -3.17459e-13 -1.08735e-13 1.59028e-14 -3.67522e-12 3.07868e-14 2.38542e-13 -8.65701e-12 -1.6843e-13 5.1843e-13 -1.49426e-11 -2.92611e-13 9.16795e-13 -8.66224e-12 -1.66979e-13 5.34333e-13 -7.73091 5.47488 -0.417314 -8.65851e-12 -1.68371e-13 5.31153e-13 -2.90554 0.965183 -0.102902 -8.66938e-12 -1.68569e-13 5.31948e-13 -10.2786 0.731801 -0.0259123 -8.64674e-12 -1.65389e-13 5.37514e-13 -2.22167 -0.733487 0.20892 -2.03217e-16 0.0 -3.88251e-19 0.770618 -4.17183 -0.065682 -0.00265497 2.00554 -0.0182712 -0.461844 2.16687 0.0961028 2.03217e-16 0.0 3.88251e-19 -0.143221 -2.55995 0.0260682 0.00716311 -0.914089 0.062171 0.45376 3.47457 -0.121223
35.1086 83.2119 193.038 179.27 6.9096 -151.378 -1.81048 -5.84898 -0.412164 1.22512 3.43085 -0.0841433 -0.446516 3.48574 -0.979108 1.60252 -0.582739 -1.10391 -0.0 0.0 0.0 -0.0 0.0 0.0 -2.04784e-14 -1.38116e-13 -4.40098e-14 22.5363 2.09043 -2.33955 -5.20816 -2.60333 7.86107 0.000517738 -0.522773 -0.073461 5.95498e-10 -9.66052e-10 7.46453e-10 1.03066e-09 -1.66981e-09 1.29073e-09 5.95503e-10 -9.6605e-10 7.46447e-10 7.73091 5.47488 0.417314 5.95499e-10 -9.66051e-10 7.46454e-10 2.90554 0.965183 0.102902 5.95509e-10 -9.66051e-10 7.46449e-10 10.2786 0.731801 0.0259123 5.95496e-10 -9.66051e-10 7.46452e-10 2.22167 -0.733487 -0.20892 -2.05797e-14 -1.38118e-13 -4.42416e-14 -19.9402 6.46646 -0.395021 5.94907 -3.16816 -8.73126 -0.00151783 -0.865675 0.121613 8.53026e-11 -5.6448e-10 -4.79823e-10 1.45774e-10 -9.75987e-10 -8.30649e-10 8.5298e-11 -5.64479e-10 -4.79808e-10 -7.73091 5.47488 -0.417314 8.53017e-11 -5.64481e-10 -4.79812e-10 -2.90554 0.965183 -0.102902 8.52923e-11 -5.64481e-10 -4.79813e-10 -10.2786 0.731801 -0.0259123 8.53114e-11 -5.64478e-10 -4.79809e-10 -2.22167 -0.733487 0.20892 -2.03217e-16 0.0 -3.88251e-19 -0.0127582 -14.2201 2.15597 0.00398937 5.86919 0.0663894 -0.68202 -2.00512 -2.23601 2.03217e-16 0.0 3.88251e-19 -0.777121 -11.4153 -1.27782 0.00593948 1.94749 0.0191447 0.471935 2.11193 0.280415
35.0987 83.1983 192.912 179.214 6.7442 -151.411 -4.26366 -12.0222 -0.871866 2.41763 7.06139 -0.194079 -0.784568 7.16557 -2.02599 3.27874 -1.19497 -2.27041 -0.0 0.0 0.0 -0.0 0.0 0.0 -4.45677e-14 -2.94603e-13 -9.20311e-14 46.548 4.30548 -4.82182 -9.95202 -5.19796 16.2338 -0.000427404 -1.09112 -0.153347 1.28815e-09 -2.03685e-09 1.61e-09 2.22938e-09 -3.52061e-09 2.78394e-09 1.28815e-09 -2.03685e-09 1.60999e-09 7.73091 5.47488 0.417314 1.28815e-09 -2.03685e-09 1.61e-09 2.90554 0.965183 0.102902 1.28815e-09 -2.03685e-09 1.60999e-09 10.2786 0.731801 0.0259123 1.28814e-09 -2.03685e-09 1.61e-09 2.22167 -0.733487 -0.20892 -4.46771e-14 -2.94609e-13 -9.23013e-14 -40.9074 13.3129 -0.829072 11.2006 -6.27245 -18.0463 0.000884352 -1.78662 0.251085 1.94533e-10 -1.21555e-09 -1.01304e-09 3.32601e-10 -2.10176e-09 -1.75374e-09 1.94529e-10 -1.21555e-09 -1.01303e-09 -7.73091 5.47488 -0.417314 1.94533e-10 -1.21555e-09 -1.01304e-09 -2.90554 0.965183 -0.102902 1.94525e-10 -1.21555e-09 -1.01304e-09 -10.2786 0.731801 -0.0259123 1.9454e-10 -1.21554e-09 -1.01303e-09 -2.22167 -0.733487 0.20892 -2.03217e-16 0.0 -3.88251e-19 0.0898791 -24.8088 4.8236 -0.0016249 9.97655 0.157948 -1.28696 -6.399 -4.73331 2.03217e-16 0.0 3.88251e-19 -1.91186 -20.7721 -2.77169 0.0093248 4.97966 -0.026578 0.511954 0.672583 0.702747
35.0788 83.1702 192.755 179.095 6.6069 -151.462 -6.5228 -17.5363 -1.31473 3.48628 10.3032 -0.29607 -0.977196 10.4449 -2.98133 4.7402 -1.74562 -3.3131 -0.0 0.0 0.0 -0.0 0.0 0.0 -5.97428e-14 -4.14316e-13 -1.32328e-13 68.1223 6.22935 -7.05585 -13.5345 -7.22318 23.7587 -0.00246966 -1.56831 -0.220456 1.80378e-09 -2.89785e-09 2.23828e-09 3.12187e-09 -5.0089e-09 3.87032e-09 1.80379e-09 -2.89784e-09 2.23827e-09 7.73091 5.47488 0.417314 1.80378e-09 -2.89784e-09 2.23827e-09 2.90554 0.965183 0.102902 1.80379e-09 -2.89784e-09 2.23827e-09 10.2786 0.731801 0.0259123 1.80378e-09 -2.89784e-09 2.23828e-09 2.22167 -0.733487 -0.20892 -5.98534e-14 -4.14324e-13 -1.32625e-13 -59.5395 19.3956 -1.24838 15.0354 -8.62327 -26.4756 0.00648069 -2.59698 0.365172 2.73222e-10 -1.6931e-09 -1.4405e-09 4.67209e-10 -2.92738e-09 -2.49378e-09 2.73218e-10 -1.6931e-09 -1.44049e-09 -7.73091 5.47488 -0.417314 2.73222e-10 -1.69311e-09 -1.4405e-09 -2.90554 0.965183 -0.102902 2.73216e-10 -1.69311e-09 -1.4405e-09 -10.2786 0.731801 -0.0259123 2.73228e-10 -1.6931e-09 -1.4405e-09 -2.22167 -0.733487 0.20892 -2.03217e-16 0.0 -3.88251e-19 1.17759 -34.1018 7.73729 -0.0178277 13.5964 0.241409 -2.15146 -10.278 -7.009 2.03217e-16 0.0 3.88251e-19 -3.40467 -29.0638 -4.35954 0.0164415 7.67065 -0.0675296 0.56557 -0.613185 1.08273
35.0468 83.1593 192.606 178.916 6.4369 -151.527 -8.10635 -21.4062 -1.66474 4.21898 12.5734 -0.374148 -1.0633 12.7347 -3.6661 5.71165 -2.14477 -4.04499 -0.0 0.0 0.0 -0.0 0.0 0.0 -5.26322e-14 -4.42092e-13 -1.53313e-13 83.2339 7.46584 -8.63251 -15.6776 -8.39098 28.9947 -0.00405363 -1.81763 -0.255538 1.8769e-09 -3.23435e-09 2.27839e-09 3.24876e-09 -5.5909e-09 3.93961e-09 1.8769e-09 -3.23435e-09 2.27838e-09 7.73091 5.47488 0.417314 1.87689e-09 -3.23435e-09 2.27839e-09 2.90554 0.965183 0.102902 1.8769e-09 -3.23435e-09 2.27839e-09 10.2786 0.731801 0.0259123 1.87689e-09 -3.23435e-09 2.2784e-09 2.22167 -0.733487 -0.20892 -5.27271e-14 -4.42102e-13 -1.53611e-13 -72.5373 23.5722 -1.57046 17.2786 -9.93157 -32.4212 0.0120375 -3.1309 0.440462 2.75557e-10 -1.73689e-09 -1.60357e-09 4.71269e-10 -3.00259e-09 -2.77619e-09 2.75554e-10 -1.73689e-09 -1.60356e-09 -7.73091 5.47488 -0.417314 2.75558e-10 -1.7369e-09 -1.60357e-09 -2.90554 0.965183 -0.102902 2.75553e-10 -1.73689e-09 -1.60357e-09 -10.2786 0.731801 -0.0259123 2.75562e-10 -1.73689e-09 -1.60357e-09 -2.22167 -0.733487 0.20892 -2.03217e-16 0.0 -3.88251e-19 2.62037 -40.3594 10.2098 -0.0348003 15.9976 0.299229 -2.93024 -12.9414 -8.61646 2.03217e-16 0.0 3.88251e-19 -4.80607 -34.7475 -5.75567 0.0236158 9.5087 -0.0957801 0.613253 -1.51531 1.35687
35.0226 83.1579 192.507 178.795 6.2191 -151.464 -8.64297 -22.9745 -1.86351 4.46443 13.4862 -0.420809 -1.11752 13.6434 -3.94729 6.00241 -2.32911 -4.35208 -0.0 0.0 0.0 -0.0 0.0 0.0 -3.91869e-15 -3.07987e-13 -1.44789e-13 89.1341 7.74845 -9.25263 -16.3897 -8.73596 30.9168 -0.00365148 -1.72474 -0.242469 1.15908e-09 -2.69966e-09 1.23052e-09 2.00736e-09 -4.66775e-09 2.12745e-09 1.15909e-09 -2.69966e-09 1.23051e-09 7.73091 5.47488 0.417314 1.15908e-09 -2.69966e-09 1.23052e-09 2.90554 0.965183 0.102902 1.15909e-09 -2.69966e-09 1.23052e-09 10.2786 0.731801 0.0259123 1.15907e-09 -2.69966e-09 1.23052e-09 2.22167 -0.733487 -0.20892 -3.96303e-15 -3.07995e-13 -1.45036e-13 -77.7488 25.0654 -1.71241 18.068 -10.3537 -34.7562 0.0138229 -3.25385 0.457826 1.52654e-10 -9.68792e-10 -1.32131e-09 2.61521e-10 -1.67313e-09 -2.28787e-09 1.52651e-10 -9.68794e-10 -1.32129e-09 -7.73091 5.47488 -0.417314 1.52656e-10 -9.68797e-10 -1.32131e-09 -2.90554 0.965183 -0.102902 1.52655e-10 -9.68794e-10 -1.3213e-09 -10.2786 0.731801 -0.0259123 1.52659e-10 -9.68794e-10 -1.32131e-09 -2.22167 -0.733487 0.20892 -2.03217e-16 0.0 -3.88251e-19 3.24179 -42.5278 11.1408 -0.0408842 16.6769 0.317153 -3.24852 -13.9589 -9.18584 2.03217e-16 0.0 3.88251e-19 -5.50486 -36.8188 -6.53451 0.0266742 10.1425 -0.105369 0.633432 -1.87106 1.47222
